<?xml version="1.0" encoding="utf-8"?>
<!-- Generator: Adobe Illustrator 16.0.0, SVG Export Plug-In . SVG Version: 6.00 Build 0)  -->
<!DOCTYPE svg PUBLIC "-//W3C//DTD SVG 1.1//EN" "http://www.w3.org/Graphics/SVG/1.1/DTD/svg11.dtd">
<?xml-stylesheet type="text/css" href="../css/icon-styles.css" ?>
<svg version="1.1" id="Layer_1" xmlns="http://www.w3.org/2000/svg" xmlns:xlink="http://www.w3.org/1999/xlink" x="0px" y="0px"
	 width="129px" height="129px" viewBox="0 0 129 129" enable-background="new 0 0 129 129" xml:space="preserve">
<path fill-rule="evenodd" clip-rule="evenodd" fill="#E8E7E7" d="M64.746,128.133c-34.877,0-63.253-28.376-63.253-63.254
	C1.493,30,29.869,1.625,64.746,1.625C99.624,1.625,128,30,128,64.879C128,99.757,99.624,128.133,64.746,128.133z M118.091,73.537
	c-1.848-0.582-16.722-5.02-33.653-2.311c7.067,19.419,9.942,35.235,10.495,38.523C107.055,101.555,115.684,88.57,118.091,73.537z
	 M85.852,114.696c-0.804-4.742-3.941-21.261-11.526-40.972c-0.117,0.04-0.238,0.079-0.355,0.119
	c-30.475,10.619-41.413,31.752-42.387,33.74c9.161,7.145,20.674,11.404,33.163,11.404C72.231,118.988,79.365,117.457,85.852,114.696
	z M24.607,101.086c1.224-2.095,16.052-26.646,43.917-35.653c0.703-0.228,1.415-0.441,2.128-0.642
	c-1.355-3.07-2.832-6.143-4.38-9.169c-26.981,8.075-53.163,7.737-55.527,7.688c-0.016,0.549-0.027,1.099-0.027,1.65
	C10.718,78.838,15.979,91.508,24.607,101.086z M11.859,53.896c2.417,0.031,24.676,0.128,49.948-6.584
	C52.855,31.399,43.201,18.02,41.776,16.066C26.661,23.196,15.363,37.13,11.859,53.896z M52.086,12.435
	c1.492,2,11.306,15.362,20.157,31.629c19.214-7.201,27.348-18.133,28.317-19.517c-9.54-8.464-22.085-13.614-35.814-13.614
	C60.387,10.933,56.149,11.456,52.086,12.435z M106.568,30.795c-1.141,1.54-10.192,13.147-30.17,21.302
	c1.258,2.574,2.463,5.191,3.586,7.826c0.396,0.934,0.783,1.862,1.163,2.788c17.977-2.261,35.839,1.362,37.621,1.739
	C118.649,51.699,114.091,39.989,106.568,30.795z"/>
</svg>