<?xml version="1.0" encoding="utf-8"?>
<!-- Generator: Adobe Illustrator 16.0.0, SVG Export Plug-In . SVG Version: 6.00 Build 0)  -->
<!DOCTYPE svg PUBLIC "-//W3C//DTD SVG 1.1//EN" "http://www.w3.org/Graphics/SVG/1.1/DTD/svg11.dtd">
<?xml-stylesheet type="text/css" href="../css/icon-styles.css" ?>
<svg version="1.1" id="Layer_1" xmlns="http://www.w3.org/2000/svg" xmlns:xlink="http://www.w3.org/1999/xlink" x="0px" y="0px"
	 width="129px" height="129px" viewBox="0 0 129 129" enable-background="new 0 0 129 129" xml:space="preserve">
<g>
	<path fill-rule="evenodd" clip-rule="evenodd" fill="#E8E7E7" d="M64.434,1C28.853,1,0,29.847,0,65.435
		c0,28.469,18.462,52.62,44.064,61.142c3.22,0.597,4.403-1.398,4.403-3.101c0-1.536-0.06-6.613-0.088-11.996
		c-17.926,3.896-21.708-7.603-21.708-7.603c-2.931-7.448-7.154-9.428-7.154-9.428c-5.847-3.999,0.44-3.918,0.44-3.918
		c6.47,0.454,9.877,6.642,9.877,6.642c5.747,9.849,15.074,7.002,18.751,5.355c0.578-4.163,2.248-7.008,4.091-8.617
		c-14.312-1.627-29.357-7.153-29.357-31.842c0-7.035,2.518-12.783,6.64-17.295c-0.669-1.623-2.875-8.176,0.624-17.052
		c0,0,5.411-1.731,17.724,6.606c5.14-1.429,10.652-2.144,16.127-2.169c5.476,0.025,10.992,0.74,16.142,2.169
		c12.3-8.337,17.701-6.606,17.701-6.606c3.508,8.876,1.303,15.429,0.635,17.052c4.13,4.512,6.631,10.261,6.631,17.295
		c0,24.749-15.073,30.197-29.422,31.792c2.312,1.999,4.369,5.921,4.369,11.931c0,8.621-0.074,15.562-0.074,17.684
		c0,1.714,1.161,3.724,4.426,3.093c25.588-8.53,44.027-32.676,44.027-61.134C128.868,29.847,100.02,1,64.434,1z"/>
	<path fill="#E8E7E7" d="M24.405,93.513c-0.142,0.322-0.646,0.417-1.105,0.196c-0.468-0.21-0.729-0.646-0.578-0.967
		c0.138-0.33,0.643-0.421,1.109-0.202C24.299,92.75,24.566,93.192,24.405,93.513L24.405,93.513z M23.612,92.926"/>
	<path fill="#E8E7E7" d="M27.015,96.425c-0.307,0.283-0.909,0.152-1.316-0.298c-0.422-0.45-0.5-1.051-0.188-1.341
		c0.316-0.282,0.899-0.15,1.321,0.298C27.253,95.539,27.336,96.135,27.015,96.425L27.015,96.425z M26.4,95.765"/>
	<path fill="#E8E7E7" d="M29.555,100.134c-0.395,0.276-1.041,0.019-1.44-0.554c-0.395-0.573-0.395-1.261,0.009-1.536
		c0.399-0.275,1.036-0.027,1.44,0.539C29.958,99.167,29.958,99.855,29.555,100.134L29.555,100.134z M29.555,100.134"/>
	<path fill="#E8E7E7" d="M33.035,103.721c-0.353,0.39-1.105,0.284-1.655-0.248c-0.563-0.519-0.72-1.257-0.367-1.646
		c0.359-0.391,1.115-0.28,1.669,0.247C33.242,102.594,33.412,103.335,33.035,103.721L33.035,103.721z M33.035,103.721"/>
	<path fill="#E8E7E7" d="M37.837,105.803c-0.156,0.504-0.88,0.733-1.609,0.519c-0.729-0.221-1.206-0.813-1.059-1.321
		c0.151-0.509,0.879-0.747,1.614-0.519C37.511,104.702,37.988,105.288,37.837,105.803L37.837,105.803z M37.837,105.803"/>
	<path fill="#E8E7E7" d="M43.111,106.188c0.017,0.531-0.602,0.971-1.367,0.981c-0.771,0.017-1.394-0.413-1.403-0.936
		c0-0.538,0.605-0.974,1.376-0.986C42.482,105.233,43.111,105.661,43.111,106.188L43.111,106.188z M43.111,106.188"/>
	<path fill="#E8E7E7" d="M48.018,105.353c0.091,0.52-0.441,1.051-1.202,1.192c-0.748,0.138-1.44-0.184-1.536-0.696
		c-0.093-0.531,0.449-1.065,1.196-1.203C47.238,104.515,47.92,104.825,48.018,105.353L48.018,105.353z M48.018,105.353"/>
</g>
</svg>
