<?xml version="1.0" encoding="utf-8"?>
<!-- Generator: Adobe Illustrator 16.0.0, SVG Export Plug-In . SVG Version: 6.00 Build 0)  -->
<!DOCTYPE svg PUBLIC "-//W3C//DTD SVG 1.1//EN" "http://www.w3.org/Graphics/SVG/1.1/DTD/svg11.dtd">
<?xml-stylesheet type="text/css" href="../css/icon-styles.css" ?>
<svg version="1.1" id="Layer_1" xmlns="http://www.w3.org/2000/svg" xmlns:xlink="http://www.w3.org/1999/xlink" x="0px" y="0px"
	 width="50px" height="42px" viewBox="0 0 43 36" enable-background="new 0 0 43 36" xml:space="preserve">
<g>
	<g>
		<path class="icon-linkedin__path" fill="#FFFFFF" d="M40.637,29.051c0.423-0.052,0.645-0.285,0.645-0.676c0-0.477-0.29-0.708-0.884-0.708h-0.953v2.507h0.358
			v-1.092h0.443l0.009,0.014l0.689,1.078h0.383l-0.738-1.116L40.637,29.051z M40.221,28.799h-0.418v-0.847h0.529
			c0.275,0,0.587,0.045,0.587,0.403C40.919,28.766,40.605,28.799,40.221,28.799z"/>
		<path class="icon-linkedin__path" fill="#FFFFFF" d="M40.262,26.553c-1.331,0-2.374,1.041-2.374,2.371c0,1.331,1.043,2.371,2.374,2.371
			c1.329,0,2.372-1.04,2.372-2.371C42.634,27.594,41.591,26.553,40.262,26.553z M40.262,30.984c-1.135,0-2.025-0.896-2.025-2.061
			c0-1.163,0.891-2.061,2.025-2.061c1.136,0,2.024,0.897,2.024,2.061C42.287,30.088,41.398,30.984,40.262,30.984z"/>
	</g>
	<g>
		<path class="icon-linkedin__path" fill="#FFFFFF" d="M33.702,0H3.021C1.556,0,0.366,1.162,0.366,2.596v30.807c0,1.434,1.19,2.598,2.655,2.598h30.681
			c1.468,0,2.663-1.164,2.663-2.598V2.596C36.365,1.162,35.169,0,33.702,0z M11.044,30.676H5.7v-17.18h5.345V30.676z M8.374,11.149
			c-1.715,0-3.098-1.387-3.098-3.097c0-1.709,1.383-3.096,3.098-3.096c1.708,0,3.095,1.387,3.095,3.096
			C11.468,9.762,10.082,11.149,8.374,11.149z M31.042,30.676h-5.339v-8.354c0-1.992-0.034-4.555-2.774-4.555
			c-2.778,0-3.202,2.171-3.202,4.413v8.497h-5.333v-17.18h5.118v2.349h0.073c0.712-1.351,2.454-2.775,5.052-2.775
			c5.406,0,6.405,3.557,6.405,8.184V30.676z"/>
	</g>
</g>
</svg>
