<?xml version="1.0" encoding="utf-8"?>
<!-- Generator: Adobe Illustrator 16.0.0, SVG Export Plug-In . SVG Version: 6.00 Build 0)  -->
<!DOCTYPE svg PUBLIC "-//W3C//DTD SVG 1.1//EN" "http://www.w3.org/Graphics/SVG/1.1/DTD/svg11.dtd">
<?xml-stylesheet type="text/css" href="../css/icon-styles.css" ?>
<svg version="1.1" id="Layer_1" xmlns="http://www.w3.org/2000/svg" xmlns:xlink="http://www.w3.org/1999/xlink" x="0px" y="0px"
	 width="129px" height="129px" viewBox="0 0 129 129" enable-background="new 0 0 129 129" xml:space="preserve">
<path fill-rule="evenodd" clip-rule="evenodd" fill="none" stroke="#E8E7E7" stroke-width="7" stroke-miterlimit="10" d="
	M64.789,4.667c33.261,0,60.225,26.964,60.225,60.225c0,33.261-26.964,60.225-60.225,60.225c-33.262,0-60.226-26.964-60.226-60.225
	C4.563,31.63,31.527,4.667,64.789,4.667z"/>
<path fill="#E8E7E7" d="M96.666,41.528H33.274c-2.218,0-4.029,1.82-4.029,4.046v37.526c0,2.226,1.812,4.046,4.029,4.046h39.646
	l7.085,8.906l7.086-8.906h9.574c2.217,0,4.029-1.819,4.029-4.046V45.574C100.695,43.348,98.883,41.528,96.666,41.528z
	 M64.576,79.485H36.992v-5.268c0-3.584,3.029-6.49,6.734-6.49l0.026,0.027h0.487l2.893-1.575l0.46-1.847
	c-0.676-0.706-1.406-1.874-2.055-3.34c-0.055,0-0.108,0-0.163,0c-0.757,0-1.514-0.841-1.677-1.873
	c-0.135-0.815,0.136-1.494,0.623-1.766c-0.649-3.312-1.082-8.39,4.597-9.639c3.408-0.761,4.625,1.874,4.76,2.172
	c2.056-1.168,3.381,0.57,3.705,1.494c0.622,1.656,0.406,4.752,0.108,6.136c0.352,0.326,0.514,0.924,0.405,1.603
	c-0.162,1.005-0.892,1.847-1.649,1.874c-0.595,1.33-1.434,2.471-2.245,3.313l0.46,1.847h0.027l2.813,1.574h0.541
	c3.704,0,6.733,2.933,6.733,6.49V79.485z M81.344,69.683h-13.63V67.13h13.63V69.683z M94.948,64.578H67.714v-2.553h27.234V64.578z
	 M94.948,59.473H67.714v-2.552h27.234V59.473z M94.948,54.396H67.714v-2.553h27.234V54.396z"/>
</svg>
